<svg width="512" height="512" viewBox="0 0 512 512" xmlns="http://www.w3.org/2000/svg" xmlns:xlink="http://www.w3.org/1999/xlink"><defs><linearGradient x1="0%" y1="0%" x2="100%" y2="100%" id="c"><stop stop-color="#52637C" offset="0%"/><stop stop-color="#314158" offset="100%"/></linearGradient><linearGradient x1="0%" y1="0%" x2="100%" y2="100%" id="e"><stop stop-color="#314158" offset="0%"/><stop stop-color="#52637C" offset="100%"/></linearGradient><linearGradient x1="0%" y1="0%" x2="100%" y2="100%" id="d"><stop stop-color="#576B89" offset="0%"/><stop stop-color="#40536E" offset="100%"/></linearGradient><linearGradient x1="50%" y1="0%" x2="50%" y2="100%" id="h"><stop stop-color="#FFF" offset="0%"/><stop stop-color="#E9EEF5" offset="100%"/></linearGradient><linearGradient x1="50%" y1="0%" x2="50%" y2="100%" id="k"><stop stop-color="#FF78C7" offset="0%"/><stop stop-color="#FF54B3" offset="100%"/></linearGradient><filter x="-4.5%" y="-3.5%" width="109%" height="109%" filterUnits="objectBoundingBox" id="a"><feMorphology radius=".5" operator="dilate" in="SourceAlpha" result="shadowSpreadOuter1"/><feOffset dy="4" in="shadowSpreadOuter1" result="shadowOffsetOuter1"/><feGaussianBlur stdDeviation="5" in="shadowOffsetOuter1" result="shadowBlurOuter1"/><feColorMatrix values="0 0 0 0 0 0 0 0 0 0 0 0 0 0 0 0 0 0 0.3 0" in="shadowBlurOuter1"/></filter><filter x="-25.5%" y="-18.8%" width="151%" height="144.4%" filterUnits="objectBoundingBox" id="f"><feOffset dy="5" in="SourceAlpha" result="shadowOffsetOuter1"/><feGaussianBlur stdDeviation="10" in="shadowOffsetOuter1" result="shadowBlurOuter1"/><feColorMatrix values="0 0 0 0 0 0 0 0 0 0 0 0 0 0 0 0 0 0 0.2 0" in="shadowBlurOuter1"/></filter><filter x="-22.2%" y="-18.8%" width="144.4%" height="144.4%" filterUnits="objectBoundingBox" id="i"><feOffset dy="5" in="SourceAlpha" result="shadowOffsetOuter1"/><feGaussianBlur stdDeviation="10" in="shadowOffsetOuter1" result="shadowBlurOuter1"/><feColorMatrix values="0 0 0 0 0 0 0 0 0 0 0 0 0 0 0 0 0 0 0.2 0" in="shadowBlurOuter1"/></filter><path d="M165.375 50h181.25c40.119 0 54.666 4.177 69.333 12.021 14.667 7.844 26.177 19.354 34.021 34.02C457.823 110.71 462 125.257 462 165.376v181.25c0 40.119-4.177 54.666-12.021 69.333-7.844 14.667-19.354 26.177-34.02 34.021C401.29 457.823 386.743 462 346.624 462h-181.25c-40.119 0-54.666-4.177-69.333-12.021-14.667-7.844-26.177-19.354-34.021-34.02C54.177 401.29 50 386.743 50 346.624v-181.25c0-40.119 4.177-54.666 12.021-69.333 7.844-14.667 19.354-26.177 34.02-34.021C110.71 54.177 125.257 50 165.376 50Z" id="b"/><path d="M242.486 282.323c0 14.811-7.334 26.62-22 35.425l-.481.286c-12.754 7.626-27.09 11.439-43.008 11.439-11.915 0-23.318-2.279-34.21-6.836-12.567-5.3-21.317-12.647-26.251-22.04-1.024-1.953-1.536-3.767-1.536-5.44 0-2.79 1.117-5.209 3.351-7.255 2.234-2.046 4.748-3.068 7.54-3.068 3.072 0 5.925 1.708 8.559 5.125l.238.315c9.123 12.183 23.226 18.274 42.31 18.274 18.803 0 32.208-5.161 40.214-15.484 2.793-3.813 4.235-7.394 4.329-10.741 0-5.673-3.259-10.928-9.775-15.764-5.027-3.587-10.746-6.223-17.158-7.907l-.715-.184c-5.362-1.428-11.41-2.17-18.145-2.228l-.845-.004c-12.009 0-22.76-2.976-32.256-8.927-10.984-6.975-16.476-16.229-16.476-27.76 0-11.44 5.678-20.646 17.035-27.621 9.681-5.952 20.62-8.928 32.814-8.928 7.633 0 15.22 1.348 22.76 4.045 8.465 3.001 14.705 7.113 18.72 12.337l.27.358c1.862 2.418 2.793 4.65 2.793 6.696 0 2.79-1.094 5.254-3.281 7.393-2.188 2.139-4.725 3.208-7.61 3.208-1.21 0-5.05-2.185-11.52-6.556-6.47-4.37-13.847-6.556-22.132-6.556-12.66 0-21.55 3.44-26.67 10.323-1.49 1.86-2.234 3.626-2.234 5.3 0 6.515 5.664 11.22 16.992 14.113l.462.116c3.74.979 8.16 1.49 13.263 1.532l.7.003c15.64 0 29.696 3.86 42.17 11.578 14.522 9.02 21.783 20.832 21.783 35.433Z" id="g"/><path d="M398 287.484c0 1.767-.557 3.673-1.672 5.72-6.299 10.963-15.691 19.728-28.177 26.294l-.672.35c-12.171 6.416-24.946 9.625-38.325 9.625-20.905 0-38.93-6.929-54.074-20.785-15.702-14.322-23.553-31.806-23.553-52.452 0-20.522 7.688-37.857 23.065-52.005l.488-.446C290.224 189.928 308.249 183 329.154 183c7.618 0 15.562 1.348 23.831 4.045 9.291 3.07 18.536 7.952 27.734 14.648 11.428 8.37 17.142 16.321 17.142 23.854 0 3.72-1.812 6.556-5.436 8.51l-105.638 56.775c11.428 11.81 25.55 17.716 42.367 17.716 17.931 0 32.472-6.23 43.62-18.693l1.386-1.796c1.178-1.535 2.667-3.494 4.468-5.876 2.602-3.44 5.435-5.161 8.502-5.161 2.787 0 5.295 1.046 7.525 3.138 2.23 2.093 3.345 4.534 3.345 7.324Zm-26.2-65.843c-11.336-11.81-25.551-17.716-42.646-17.716-15.052 0-28.152 4.882-39.301 14.647-11.614 10.23-17.421 22.785-17.421 37.664 0 5.952 1.022 11.625 3.066 17.02l96.301-51.615Z" id="j"/></defs><g fill="none" fill-rule="evenodd"><use fill="#000" filter="url(#a)" xlink:href="#b"/><use fill="url(#c)" xlink:href="#b"/><path d="M163.326 80h185.348c28.974 0 39.48 3.017 50.073 8.682 10.593 5.665 18.906 13.978 24.571 24.57 5.665 10.593 8.682 21.1 8.682 50.074v185.348c0 28.974-3.017 39.48-8.682 50.073-5.665 10.593-13.978 18.906-24.57 24.571-10.593 5.665-21.1 8.682-50.074 8.682H163.326c-28.974 0-39.48-3.017-50.073-8.682-10.593-5.665-18.906-13.978-24.571-24.57-5.665-10.593-8.682-21.1-8.682-50.074V163.326c0-28.974 3.017-39.48 8.682-50.073 5.665-10.593 13.978-18.906 24.57-24.571 10.593-5.665 21.1-8.682 50.074-8.682Z" stroke="url(#d)" stroke-width="2" fill="url(#e)"/><g fill-rule="nonzero"><use fill="#000" filter="url(#f)" xlink:href="#g"/><use fill="url(#h)" xlink:href="#g"/></g><g fill-rule="nonzero"><use fill="#000" filter="url(#i)" xlink:href="#j"/><use fill="url(#k)" xlink:href="#j"/></g></g></svg>
